<svg width="280" height="120" viewBox="0 0 280 120" fill="none" xmlns="http://www.w3.org/2000/svg">
  <path d="M50 99C22.4 99 0 78.1 0 52.5C0 33.2 16.5 17.5 37 17.5C44.7 17.5 51.9 19.7 58.1 23.5C65.7 13.7 77.8 7.5 91.3 7.5C113.6 7.5 131.7 23.1 131.7 42.3C131.7 43 131.6 43.8 131.5 44.5C136 43.5 140.7 43 145.6 43C170 43 189.8 60.8 189.8 82.6C189.8 102.2 172.4 118 150.9 118H50V99Z" fill="white" fill-opacity="0.88"/>
  <text x="132" y="74" text-anchor="middle" font-family="Arial, sans-serif" font-size="14" fill="#7D8794">cloud 3 placeholder</text>
</svg>
