<svg width="320" height="130" viewBox="0 0 320 130" fill="none" xmlns="http://www.w3.org/2000/svg">
  <path d="M58 107C26 107 0 82 0 51C0 28.6 19.2 10.5 43 10.5C52.8 10.5 62 13.6 69.4 18.9C78.3 8.3 91.9 1.5 107.1 1.5C132.6 1.5 153.3 19.4 153.3 41.5C153.3 42.4 153.2 43.2 153.1 44.1C158.1 42.9 163.3 42.2 168.8 42.2C196.7 42.2 219.4 62.4 219.4 87.2C219.4 109.8 199.6 128 175.3 128H58V107Z" fill="white" fill-opacity="0.9"/>
  <text x="155" y="79" text-anchor="middle" font-family="Arial, sans-serif" font-size="15" fill="#7D8794">cloud 2 placeholder</text>
</svg>
