<svg width="360" height="150" viewBox="0 0 360 150" fill="none" xmlns="http://www.w3.org/2000/svg">
  <path d="M72 120C32.2 120 0 89.1 0 51C0 22.8 24.1 0 54 0C73 0 89.8 9.2 99.5 23.2C107.1 12.4 120.4 5.5 135.3 5.5C157.9 5.5 176.2 21.8 176.2 41.9C176.2 43.6 176.1 45.2 175.9 46.8C181.2 45.3 186.8 44.6 192.6 44.6C225.2 44.6 251.6 67.6 251.6 96C251.6 122.5 228.7 144 200.3 144H72V120Z" fill="white" fill-opacity="0.92"/>
  <text x="178" y="92" text-anchor="middle" font-family="Arial, sans-serif" font-size="16" fill="#7D8794">cloud 1 placeholder</text>
</svg>
